<?xml version="1.0" encoding="UTF-8"?>
<svg xmlns="http://www.w3.org/2000/svg" viewBox="0 0 256 256">
  <defs>
    <linearGradient id="bg" x1="0%" y1="0%" x2="100%" y2="100%">
      <stop offset="0%" style="stop-color:#1a1e2e"/>
      <stop offset="100%" style="stop-color:#0d1117"/>
    </linearGradient>
  </defs>
  <rect width="256" height="256" rx="40" fill="url(#bg)"/>
  <rect x="4" y="4" width="248" height="248" rx="38" fill="none" stroke="#58a6ff" stroke-width="2" opacity="0.4"/>
  <rect x="30" y="60" width="36" height="140" rx="6" fill="#238636" opacity="0.85"/>
  <rect x="74" y="60" width="36" height="140" rx="6" fill="#238636" opacity="0.85"/>
  <rect x="118" y="60" width="36" height="140" rx="6" fill="#1f6feb" opacity="0.9"/>
  <rect x="162" y="60" width="36" height="140" rx="6" fill="#21262d" opacity="0.7"/>
  <rect x="206" y="60" width="24" height="140" rx="6" fill="#21262d" opacity="0.5"/>
  <rect x="35" y="80" width="26" height="14" rx="3" fill="#3fb950"/>
  <rect x="35" y="100" width="26" height="14" rx="3" fill="#3fb950" opacity="0.6"/>
  <rect x="79" y="80" width="26" height="14" rx="3" fill="#3fb950"/>
  <rect x="123" y="80" width="26" height="20" rx="3" fill="#58a6ff"/>
  <rect x="116" y="58" width="40" height="144" rx="8" fill="none" stroke="#58a6ff" stroke-width="1.5" opacity="0.5"/>
  <rect x="20" y="28" width="216" height="20" rx="4" fill="#161b22"/>
  <circle cx="34" cy="38" r="4" fill="#da3633"/>
  <circle cx="46" cy="38" r="4" fill="#9e6a03"/>
  <circle cx="58" cy="38" r="4" fill="#238636"/>
  <rect x="70" y="34" width="60" height="8" rx="2" fill="#58a6ff" opacity="0.6"/>
  <rect x="20" y="210" width="216" height="16" rx="4" fill="#161b22"/>
  <rect x="28" y="214" width="40" height="8" rx="2" fill="#3fb950" opacity="0.5"/>
  <rect x="74" y="214" width="30" height="8" rx="2" fill="#8b949e" opacity="0.4"/>
</svg>
